<?xml version="1.0" standalone="no"?>
<!DOCTYPE svg PUBLIC "-//W3C//DTD SVG 20010904//EN"
 "http://www.w3.org/TR/2001/REC-SVG-20010904/DTD/svg10.dtd">
<svg version="1.0" xmlns="http://www.w3.org/2000/svg"
 width="416.000000pt" height="416.000000pt" viewBox="0 0 416.000000 416.000000"
 preserveAspectRatio="xMidYMid meet">
<metadata>
Created by potrace 1.14, written by Peter Selinger 2001-2017
</metadata>
<g transform="translate(0.000000,416.000000) scale(0.100000,-0.100000)"
fill="#000000" stroke="none">
<path d="M2302 3594 c-185 -27 -367 -87 -500 -166 -80 -47 -192 -161 -236
-239 -20 -37 -45 -102 -56 -146 -19 -75 -20 -107 -18 -586 3 -489 4 -506 23
-534 15 -21 144 -90 495 -267 428 -215 478 -238 513 -233 48 7 82 29 108 70
19 31 19 51 17 669 l-3 637 -28 29 c-16 17 -54 40 -85 51 -75 29 -118 63 -132
106 -24 71 37 194 163 331 77 84 87 101 87 155 0 53 -30 102 -74 123 -41 19
-142 20 -274 0z"/>
<path d="M1005 2556 c-46 -20 -83 -70 -89 -119 -3 -23 -7 -341 -10 -708 -3
-525 -1 -671 9 -695 19 -46 71 -90 155 -132 73 -36 76 -37 190 -36 100 0 125
4 190 28 189 71 248 145 201 250 -16 37 -29 51 -63 66 -59 27 -72 25 -156 -15
-89 -43 -157 -60 -207 -51 l-38 8 6 652 c7 741 11 700 -73 744 -50 25 -72 27
-115 8z"/>
<path d="M3136 2560 c-35 -11 -64 -36 -83 -74 -14 -26 -15 -107 -8 -682 l7
-653 -37 -7 c-49 -9 -130 10 -207 49 -42 21 -77 31 -104 31 -107 -2 -171 -126
-111 -215 28 -43 161 -112 258 -133 170 -39 336 2 439 109 l35 36 -1 719 c-2
682 -3 721 -20 751 -36 60 -104 89 -168 69z"/>
</g>
</svg>
